<svg width="97" height="40" viewBox="0 0 97 40" fill="none" xmlns="http://www.w3.org/2000/svg">
<g clip-path="url(#clip0_608_1276)">
<path d="M93.3548 26.0713V26.5577H92.6473V28.2468H92.1167V26.5577H91.4092V26.0713H93.3548Z" fill="#F6F6F6"/>
<path d="M95.4769 28.2468V26.5931L95.0347 28.2468H94.5925L94.0619 26.5931V28.2468H93.5312V26.0713H94.4156L94.7694 27.5217L95.1231 26.0713H96.0075V28.2468H95.4769Z" fill="#F6F6F6"/>
<path d="M71.1801 28.1236C70.3875 28.4597 69.5949 28.6277 68.7935 28.6277C67.5254 28.6277 66.3805 28.4066 65.3678 27.9644C64.355 27.5222 63.5008 26.912 62.8051 26.1338C62.1093 25.3555 61.5721 24.4446 61.2023 23.3922C60.8324 22.3398 60.6475 21.2078 60.6475 19.9962C60.6475 18.7493 60.8324 17.5996 61.2023 16.5295C61.5721 15.4594 62.1005 14.5308 62.7963 13.7438C63.492 12.9478 64.3462 12.3288 65.359 11.8777C66.3717 11.4267 67.5078 11.1968 68.7847 11.1968C69.6389 11.1968 70.458 11.3294 71.2505 11.5859C72.0431 11.8424 72.7653 12.2226 73.4081 12.7179C74.051 13.2131 74.5794 13.8322 74.9933 14.5662C75.4072 15.3002 75.6626 16.1404 75.7595 17.0867H72.2897C72.0696 16.1581 71.6556 15.4594 71.0392 14.9907C70.4227 14.522 69.6742 14.2921 68.7847 14.2921C67.9657 14.2921 67.27 14.4513 66.6976 14.7696C66.1251 15.088 65.6584 15.5125 65.3061 16.052C64.9539 16.5914 64.6897 17.2016 64.5312 17.8826C64.3726 18.5636 64.2846 19.2711 64.2846 20.0051C64.2846 20.7037 64.3638 21.3847 64.5312 22.048C64.6897 22.7113 64.9539 23.3038 65.3061 23.8344C65.6584 24.365 66.1251 24.7895 66.6976 25.1079C67.27 25.4263 67.9657 25.5855 68.7847 25.5855C69.9912 25.5855 70.9247 25.2759 71.5852 24.6657C72.2457 24.0555 72.6244 23.1711 72.7388 22.0038H69.0753V19.2534H76.0237V28.2474H73.7076L73.3377 26.3637C72.6948 27.2039 71.9727 27.7875 71.1801 28.1236Z" fill="#F6F6F6"/>
<path d="M81.9325 11.6121V25.1517H90.0081V28.2382H78.2954V11.6121H81.9325Z" fill="#F6F6F6"/>
<path d="M64.7424 30.3076C59.1855 33.7035 50.8545 35.6315 41.5636 35.6315C24.8223 35.6315 11.2603 28.6361 11.2603 19.9958C11.2603 11.3644 24.8312 4.36018 41.5636 4.36018C50.8897 4.36018 59.2471 6.33233 64.8041 9.74599C58.7452 4.02412 47.8603 0.00908783 35.4254 0.000244141C16.3681 0.000244141 0.921387 8.95006 0.921387 19.9958C0.921387 31.0416 16.3681 40.0002 35.4166 40.0002C47.8074 40.0002 58.6571 35.9941 64.7424 30.3076Z" fill="#F6F6F6"/>
<path d="M20.085 24.1961L16.8747 10.3115H13.8413L18.5992 28.4146H21.4469L25.4531 14.1939L29.4062 28.4146H32.2627L37.1886 10.3115H33.9784L30.7681 24.1961L26.8946 10.3115H23.9585L20.085 24.1961Z" fill="#F6F6F6"/>
<path d="M45.2011 17.9346C44.7589 17.3067 44.2018 16.8291 43.5473 16.5019C42.8752 16.1658 42.097 15.9978 41.2303 15.9978C40.2575 15.9978 39.382 16.1747 38.6214 16.5196C37.9051 16.8468 37.2948 17.3332 36.7996 17.9611C35.8887 19.1196 35.4111 20.7557 35.4111 22.6925C35.4111 23.5503 35.5349 24.3639 35.7737 25.0891C36.0125 25.8231 36.3751 26.4687 36.835 27.0082C37.8078 28.1402 39.1962 28.7416 40.85 28.7416C41.7167 28.7416 42.4242 28.6531 43.0167 28.4674C43.5296 28.3082 43.8745 28.096 44.1575 27.9103C44.5201 27.6715 44.8474 27.3796 45.148 27.0436C45.3957 26.7517 45.6168 26.4334 45.8113 26.0885C46.1474 25.4694 46.3154 24.8857 46.3508 24.585L46.3773 24.3816H44.016L44.0072 24.5497C43.9453 25.3191 42.9371 26.6898 41.1418 26.6898C38.5772 26.6898 37.967 24.8326 37.9227 23.1966H46.5188V23.0108C46.5188 21.9584 46.4127 20.9945 46.2004 20.1543C45.9617 19.2788 45.6344 18.5359 45.2011 17.9346ZM40.9561 18.1203C42.8575 18.1203 43.8745 19.1462 44.0603 21.251H37.9051C38.0023 19.5441 39.3554 18.1203 40.9561 18.1203Z" fill="#F6F6F6"/>
<path d="M58.396 19.6678C58.1661 18.9337 57.83 18.2881 57.3967 17.7487C56.9456 17.1915 56.3973 16.7582 55.7694 16.4575C55.115 16.148 54.381 15.9888 53.585 15.9888C52.851 15.9976 52.1877 16.1568 51.6041 16.4663C51.1176 16.714 50.6843 17.0677 50.3129 17.5099V11.9561H47.9604V28.4053H50.1979V27.2822C50.3925 27.5386 50.6489 27.8128 50.985 28.0516C51.6217 28.5114 52.4088 28.7414 53.3197 28.7414C54.3014 28.7414 55.1857 28.5203 55.9286 28.0869C56.5919 27.6978 57.1579 27.1407 57.6001 26.4332C57.9892 25.8141 58.281 25.0801 58.4756 24.2576C58.6436 23.5501 58.7321 22.7719 58.7321 22.0113C58.7409 21.1889 58.6259 20.3929 58.396 19.6678ZM56.2824 22.3385C56.2824 23.6297 56.0259 24.7087 55.5306 25.4692C55.0089 26.274 54.2483 26.6808 53.2755 26.6808C51.8694 26.6808 50.2244 25.6991 50.2244 22.9222C50.2244 21.5957 50.3925 20.5698 50.7285 19.7916C51.2149 18.6684 52.0374 18.1289 53.2313 18.1289C54.5048 18.1289 55.3626 18.6242 55.8402 19.6589C56.2293 20.5079 56.2824 21.5426 56.2824 22.3385Z" fill="#F6F6F6"/>
</g>
<defs>
<clipPath id="clip0_608_1276">
<rect width="95.6887" height="40" fill="white" transform="translate(0.549316)"/>
</clipPath>
</defs>
</svg>
