<svg width="83" height="28" viewBox="0 0 83 28" fill="none" xmlns="http://www.w3.org/2000/svg">
<path d="M79.476 23.5648C78.5777 23.5648 77.8546 24.2879 77.8546 25.1865C77.8546 26.1046 78.5777 26.8273 79.476 26.8273C80.3746 26.8273 81.0977 26.1049 81.0977 25.1865C81.0977 24.2879 80.3749 23.5648 79.476 23.5648ZM79.476 26.5925C78.714 26.5925 78.0886 25.9675 78.0886 25.1862C78.0886 24.4242 78.714 23.7992 79.476 23.7992C80.2379 23.7992 80.8629 24.4242 80.8629 25.1862C80.8629 25.9679 80.2379 26.5925 79.476 26.5925ZM79.9254 25.2254C80.1207 25.1275 80.2185 24.9711 80.2185 24.7564C80.2185 24.4828 80.0038 24.2483 79.672 24.2483H78.7143V26.0844H79.1052V25.3616H79.4961C79.6914 25.3616 79.7698 25.4591 79.8086 25.6547C79.828 25.7913 79.8086 25.9672 79.8672 26.084H80.2775C80.1995 25.9866 80.1995 25.7715 80.1995 25.6547C80.1793 25.4598 80.1207 25.2646 79.9254 25.2254ZM79.5349 25.0887H79.1052V24.5612H79.5349C79.7108 24.5612 79.8082 24.6392 79.8082 24.8154C79.8082 25.0107 79.7104 25.0887 79.5349 25.0887ZM76.1357 14.9889L76.2922 15.3212C76.2922 15.3212 78.4799 14.5592 78.4799 12.977C78.4799 12.5473 78.0498 12 77.5029 12C76.9171 12 76.409 12.4689 76.3116 13.0749C76.2138 13.6416 76.6237 14.1101 77.1318 14.1493C77.0538 14.305 76.8193 14.6376 76.1357 14.9889ZM62.5785 14.1687C63.1841 14.1687 63.7504 13.6804 63.8478 13.0749C63.9457 12.4887 63.516 12 62.91 12C62.3045 12 61.7378 12.4887 61.6601 13.0749C61.5623 13.6804 61.9726 14.1687 62.5785 14.1687ZM20.8507 13.2697C22.9999 12.4686 25.6368 10.4955 25.6368 7.33074C25.6368 5.33826 24.8356 3.97075 23.7026 3.07213C24.3473 2.6036 25.0115 2.25154 25.7148 1.97826C25.9299 1.89987 25.9493 1.76323 25.9299 1.70461C25.9104 1.62659 25.8515 1.52877 25.5976 1.58739C24.8162 1.78264 24.0154 2.19293 23.2142 2.73987C21.9247 1.91965 20.3231 1.60717 18.897 1.60717C16.4745 1.60717 12.6455 2.58381 10.36 5.10381C6.74613 9.08914 7.11722 13.8361 10.5358 13.7775C12.9192 13.7577 16.3572 9.69432 17.0606 6.09986C17.1192 5.8068 17.0412 5.67016 16.9434 5.67016C16.7481 5.63133 16.7089 5.8068 16.6305 6.09986C16.2788 7.46738 15.2047 9.85037 13.5834 11.4721C12.4503 12.6052 10.438 14.0507 9.12912 12.703C7.7224 11.2377 9.16794 7.1549 11.9228 4.90819C13.6222 3.52125 16.318 2.25155 19.3461 2.25155C20.7917 2.25155 21.8661 2.58381 22.5889 3.16957V3.18898C21.7881 3.79453 20.9869 4.51731 20.1861 5.33789C18.2911 7.25234 15.7905 11.0421 12.255 17.8599C9.67642 22.842 7.33264 25.6554 5.10533 25.6554C3.19088 25.6554 2.19482 24.3857 2.19482 22.7248C2.19482 18.798 5.55482 15.6139 7.89898 15.6139C9.36394 15.6139 9.7552 17.0792 9.61818 18.0753C9.46176 18.9937 8.40709 21.5331 5.63322 22.2753C5.39877 22.3339 5.30096 22.4317 5.34016 22.5291C5.39877 22.6856 5.5944 22.7244 5.78928 22.7054C6.92234 22.5881 8.34848 21.5917 9.03242 20.6737C9.716 19.7556 10.3021 18.7592 10.3021 17.3723C10.3021 15.9656 9.32549 14.9695 7.87994 14.9695C6.37578 14.9695 4.7152 16.0634 3.7576 17.0202C2.5073 18.2709 1.45264 20.0678 1.45264 22.5097C1.45264 25.0297 2.87877 26.28 5.1841 26.28C7.62608 26.28 12.5489 23.4278 15.0886 17.5675C17.5306 11.9216 18.2922 10.183 19.3865 8.30776C20.6759 6.13907 21.8284 4.65432 23.0197 3.61944C23.5275 4.2444 23.7623 5.06499 23.7623 6.04163C23.7623 9.22616 21.6914 12.2733 20.2265 12.84C19.6011 12.4883 19.0348 12.3513 18.6443 12.3513C18.234 12.3513 17.687 12.5078 17.687 12.9569C17.687 13.4064 18.1559 13.68 18.9175 13.68C19.2498 13.68 19.6795 13.6214 20.1286 13.5042C20.6954 13.9925 21.0273 14.7735 21.0273 15.7699C21.0273 18.6222 18.7029 22.783 17.5306 23.8769C17.1401 24.248 16.2217 25.1858 15.2447 24.9902C13.0764 24.5605 14.4047 21.0832 15.4399 19.7351C16.2217 18.7193 17.2375 17.8405 18.6831 17.4694C18.8589 17.4104 18.8981 17.3129 18.8589 17.1763C18.8201 17.0591 18.3512 17.0983 18.0775 17.1763C14.6783 18.1335 13.3108 22.0797 13.3108 23.4472C13.3108 24.8147 14.0728 25.7327 15.5374 25.7327C17.7647 25.7327 19.5813 24.1307 20.1869 23.545C21.4566 22.2749 22.7849 20.185 22.7849 17.8016C22.7849 15.5165 21.8665 14.0903 20.8507 13.2697ZM19.4637 13.1133C19.4637 13.1133 19.1516 13.1723 18.9168 13.1723C18.5651 13.1723 18.4087 13.0939 18.4087 13.0159C18.4087 12.9378 18.4871 12.8206 18.8194 12.8792C19.0538 12.9378 19.2883 12.9961 19.4835 13.0939L19.4637 13.1133ZM78.636 17.0012C78.5971 16.8254 78.8316 16.4151 78.8704 16.337C79.9254 14.7351 80.4724 13.8757 80.4724 13.3481C80.4724 12.9573 80.2577 12.8792 80.0427 12.8792C79.6324 12.8792 79.1829 13.5046 78.9876 13.8559C78.8118 14.1881 78.3817 15.1062 78.2257 16.337C77.5417 17.802 75.647 20.1271 74.729 21.3968C74.3381 21.2016 73.7718 21.4551 73.3421 21.9046C72.9904 22.2757 72.7362 22.9398 72.7556 23.7996C71.7203 24.8741 71.0368 25.2646 70.47 25.2646C70.314 25.2646 70.0011 25.0887 70.0011 24.6198C70.0011 23.8773 70.4308 22.6856 71.5247 20.6931C71.72 20.7517 72.0324 20.7905 72.4039 20.7905C73.7322 20.7905 76.057 19.404 76.057 17.6262C76.057 16.7272 75.5294 16.1802 74.67 16.1802C73.5956 16.1802 71.095 17.3913 69.5714 20.4975C67.9302 23.8381 66.5825 25.2254 66.1528 25.2254C65.8597 25.2254 65.7425 24.8737 65.8205 24.4634C65.9378 23.8773 67.1881 21.5917 68.497 19.4626C69.0831 18.5248 69.2589 17.9192 69.2392 17.4701C69.2003 16.9228 68.8681 16.2392 68.0086 16.2194C66.817 16.1806 65.8986 17.1181 65.274 17.9976C65.2934 17.802 65.43 16.2 64.1405 16.2C63.2419 16.2 62.617 17.1576 62.2261 17.88C61.777 18.72 59.7449 22.627 59.1786 23.5648C58.7291 24.3659 58.2605 25.2646 57.811 25.2646C57.5572 25.2646 57.4205 24.9132 57.7334 24.3073L62.0308 16.4151H60.0775L57.167 21.7873C55.6427 24.5422 54.5294 25.2257 54.0799 25.2257C53.8261 25.2257 53.6308 24.9132 53.9627 24.2879L58.8269 15.36H60.4091L60.7805 14.6765H59.1984L60.5069 12.2931H58.5536L57.2443 14.6765H55.1738L54.8023 15.36H56.8729L53.1418 22.1973C52.1259 24.0729 50.9731 25.2254 50.524 25.2254C50.2309 25.2254 50.1334 24.8737 50.2115 24.4634C50.3283 23.8773 51.5984 21.5917 52.9267 19.4626C53.4931 18.5248 53.6689 17.9192 53.6495 17.4701C53.6301 16.9228 53.2978 16.2392 52.419 16.2194C51.2467 16.1806 50.3093 17.1181 49.684 17.9976C49.7034 17.802 49.8598 16.2 48.5509 16.2C47.6526 16.2 47.0273 17.1576 46.6364 17.88C46.1873 18.72 44.1553 22.627 43.5889 23.5648C43.1398 24.3659 42.6709 25.2646 42.2218 25.2646C41.9675 25.2646 41.8507 24.9323 42.1631 24.3073L46.539 16.4349H44.5853L44.2729 17.1184C44.2729 17.1184 44.1754 16.3173 43.1592 16.3173C42.1826 16.3173 39.0764 17.8606 37.5525 21.3965C36.4 24.0143 34.9937 25.2448 34.5834 25.2448C34.3489 25.2448 34.2123 24.9129 34.5247 24.2879L43.3545 8.05426H41.4012L33.7049 22.217C32.4352 24.4246 31.3996 25.2448 30.9505 25.2448C30.6966 25.2448 30.5794 24.9129 30.8918 24.2879L39.7215 8.03448H37.7683L30.0713 22.217C28.8015 24.4246 27.8443 25.2448 27.3948 25.2448C27.141 25.2448 27.0241 24.9129 27.3366 24.2879L31.7124 16.4151H29.7588L29.4463 17.0792C29.4463 17.0792 29.3485 16.2781 28.333 16.2781C27.3168 16.2781 23.918 17.8602 22.6091 21.6697C21.554 24.7173 22.9018 25.7331 23.7029 25.7331C24.6019 25.7331 25.3635 24.9319 26.0083 24.0531C25.9885 24.2289 25.8716 25.7331 27.1805 25.7331C27.9425 25.7331 28.5286 25.2444 29.4661 23.9557C29.4467 24.1509 29.4467 25.7331 30.7556 25.7331C31.5175 25.7331 32.1817 25.2444 33.1191 23.9557C33.0997 24.3462 33.1778 25.7529 34.3694 25.7529C34.9754 25.7529 35.874 25.3232 37.0657 23.2717C36.8704 25.1081 37.8859 25.7723 38.5306 25.7723C39.4292 25.7723 40.1912 24.9711 40.8359 24.0729C40.8162 24.2681 40.6989 25.7723 42.0078 25.7723C42.9065 25.7723 43.3948 24.9517 43.9223 24.0337C44.352 23.2915 46.5401 19.1109 46.9698 18.2709C47.3801 17.4891 47.849 16.7858 48.2981 16.7858C48.5326 16.7858 48.8257 16.9814 48.0641 18.3486L44.1179 25.6159H46.0716L49.3144 19.6773C50.6233 17.3133 51.4241 16.7272 52.1468 16.7272C52.3809 16.7272 52.6351 17.0789 52.2446 17.6452C50.4862 20.1458 49.1381 22.8218 49.0015 23.9161C48.8645 24.9902 49.529 25.7327 50.3492 25.7327C51.2482 25.7327 52.0098 24.7755 52.6157 23.8967C52.596 24.0919 52.4985 25.7327 53.807 25.7327C54.5686 25.7327 55.2918 25.3418 56.4249 23.8967C56.3857 24.1699 56.2878 25.7719 57.5967 25.7719C58.4759 25.7719 58.9837 24.9513 59.5112 24.0139C59.9405 23.2713 62.3045 18.7197 62.5781 18.2119C63.0075 17.4499 63.4181 16.766 63.8673 16.766C64.1211 16.766 64.4142 16.9814 63.6522 18.3486L59.7061 25.6159H61.6597L64.8827 19.6773C66.2114 17.3133 66.9924 16.7272 67.735 16.7272C67.9691 16.7272 68.2233 17.0789 67.8126 17.6452C66.0744 20.1458 64.7069 22.8218 64.5699 23.9161C64.453 24.9902 65.1168 25.7327 65.9374 25.7327C66.7188 25.7327 67.7932 24.7561 68.8483 22.8218C68.4966 25.0099 69.7663 25.7715 70.4697 25.7327C71.3097 25.7133 72.1302 25.0686 72.7944 24.404C72.9505 25.166 73.4978 25.7327 74.3964 25.7327C75.9005 25.7327 77.6784 24.5997 78.4205 23.0761C79.3979 21.0448 79.2221 18.9937 78.636 17.0012ZM74.1623 17.0594C74.4748 16.747 74.7096 16.6491 74.8657 17.0012C74.9825 17.2551 74.9045 18.427 74.0257 19.3842C73.6154 19.8337 72.7948 20.4781 71.7595 20.2634C72.7365 18.564 73.6157 17.5675 74.1623 17.0594ZM23.8982 25.1865C23.7223 25.1865 23.4491 25.0693 23.4491 24.6004C23.4491 23.8582 23.8982 22.6665 25.0705 20.596C26.8091 17.5287 28.0007 16.8254 28.3913 16.8254C28.5477 16.8254 28.8407 16.9426 28.8407 17.4111C28.8407 18.1537 28.3718 18.779 27.2582 20.9081C25.2855 24.659 24.2693 25.1865 23.8982 25.1865ZM38.7453 25.1865C38.5694 25.1865 38.2958 25.0887 38.2958 24.6198C38.2958 23.8578 38.7453 22.6856 39.9175 20.5956C41.6562 17.5478 42.8478 16.8448 43.2189 16.8448C43.3948 16.8448 43.6684 16.9616 43.6684 17.4111C43.6684 18.1731 43.2189 18.798 42.1057 20.9275C40.1322 24.6788 39.1164 25.1865 38.7453 25.1865ZM77.2882 21.377C76.7607 22.8618 75.7841 25.2257 74.2993 25.2257C73.2446 25.2257 73.3615 24.1121 73.3615 23.8582C73.3615 23.8582 73.9473 24.0146 74.651 23.3307C74.9635 23.0182 75.276 22.1973 75.0609 21.7093C76.1746 20.2246 77.6003 18.2321 78.0886 17.5481C77.9136 18.7984 77.6399 20.3224 77.2882 21.377Z" fill="white"/>
</svg>
