<svg width="53" height="28" viewBox="0 0 53 28" fill="none" xmlns="http://www.w3.org/2000/svg">
<g clip-path="url(#clip0_285_259)">
<path d="M50.4664 11.8335C50.435 10.516 49.779 9.25578 48.6563 8.66568C49.0894 8.00194 49.5124 7.33168 49.9251 6.65515C50.3491 7.51136 50.9761 8.43663 50.9761 9.65368C50.9763 10.4272 50.7959 11.1861 50.4664 11.8335ZM49.3809 13.148C48.9056 13.4945 48.3414 13.6979 47.7085 13.6979C46.8635 13.6979 46.1445 13.3514 45.6978 12.7528C46.5456 11.7219 47.3847 10.5644 48.1755 9.39031C49.0978 9.90863 49.4727 11.1057 49.4727 12.1884C49.4725 12.5236 49.4439 12.8446 49.3809 13.148ZM45.2851 11.8478C45.2393 11.6444 45.2163 11.4267 45.2163 11.2004C45.2163 10.052 46.0327 9.12673 47.1125 9.12673C47.1843 9.12673 47.2559 9.12926 47.3216 9.13494C46.634 10.1088 45.9468 11.0341 45.2849 11.8474M32.6917 17.04C32.322 17.04 32.1531 16.7394 32.1531 16.1897C32.1531 14.4109 33.734 10.6817 36.2717 8.49073C36.5523 8.95473 36.6784 9.54484 36.6811 10.1606C36.6917 13.0992 34.0005 17.04 32.6917 17.04ZM22.63 19.2225C22.2719 19.2225 22.0915 18.9133 22.0915 18.3861C22.0915 16.0893 25.9923 8.57663 27.9544 8.57663C28.3239 8.57663 28.4929 8.88589 28.4929 9.4242C28.4929 11.7444 24.6148 19.2225 22.63 19.2225ZM16.942 11.3747C16.4637 10.8564 15.9424 10.4354 15.4039 10.1088C16.7386 7.36505 18.2195 4.77284 20.0725 2.79684C20.7026 3.44694 21.0435 4.33494 21.0435 5.39747C21.0433 8.0381 19.302 10.3552 16.942 11.3747ZM9.5582 24.1316C9.04262 24.1316 8.57294 24.0629 8.15189 23.9396C10.4633 21.3394 12.1845 17.1747 14.0662 12.9933C14.8567 13.0189 15.6157 12.9217 16.2887 12.8015C16.6639 13.5949 16.8959 14.5655 16.8959 15.7202C16.8961 19.4977 14.1178 24.1316 9.5582 24.1316ZM6.47926 23.009C5.73757 22.3128 5.37084 21.4137 5.37947 20.6661C5.38578 20.2935 5.48536 19.9503 5.64578 19.6522C5.88347 20.1737 6.46199 20.5688 7.16368 20.5688C7.42718 20.568 7.68795 20.5155 7.93126 20.4143C7.45589 21.3848 6.97757 22.2617 6.47926 23.009ZM11.4599 10.5903C11.4599 10.0834 12.0729 9.99452 12.7258 10.072C12.4908 10.5095 12.2626 10.9506 12.0414 11.3952C11.6719 11.1659 11.4599 10.8823 11.4599 10.5903ZM14.9513 11.06C15.211 11.2759 15.448 11.5178 15.6586 11.7819C15.2948 11.8594 14.9249 11.9054 14.5532 11.9192C14.6849 11.6328 14.8167 11.3436 14.9513 11.06ZM50.3891 5.96757C50.8304 5.46336 51.1051 4.83326 51.1051 4.36926C51.1051 4.05431 50.9218 3.85389 50.6268 3.85389C50.1371 3.85389 49.547 4.4581 49.547 5.36884C49.547 5.49768 49.5637 5.62378 49.5872 5.74989C49.0258 6.62926 48.4416 7.51999 47.8485 8.37915C47.6382 8.33743 47.4242 8.31635 47.2098 8.3162C45.7864 8.3162 44.3199 9.38441 44.3199 11.3149C44.3199 11.8389 44.4117 12.3002 44.5691 12.6981C43.3491 14.0874 42.2778 14.9865 41.5531 14.9865C41.267 14.9865 41.095 14.832 41.095 14.5084C41.095 14.1619 41.2641 13.612 41.5993 12.8474L45.7837 3.5762L50.3032 3.04357L50.8161 1.97241L46.4426 2.11557L47.2014 0.437046L45.506 0.649046L44.7355 2.1701L38.6178 2.36757L37.5178 4.5501L43.9163 3.79684L42.6302 6.34863C41.9715 6.05368 41.1755 5.88484 40.2475 5.88484C38.847 5.88484 37.5466 6.23136 36.375 6.81852C35.8451 6.56063 35.2466 6.43473 34.6365 6.43473C33.1584 6.43473 31.486 7.14505 30.1256 8.39094C29.8504 7.54336 29.2748 7.03347 28.4211 7.03347C27.4273 7.03347 26.3706 7.55473 25.3595 8.39957C24.755 7.90399 23.8786 7.76084 22.9595 8.11031C23.455 7.18505 23.727 6.19999 23.727 5.2202C23.727 3.51052 22.9251 2.25305 21.4616 1.4941C21.9628 1.08736 22.4898 0.723783 23.0483 0.411362C22.8422 0.248204 22.7134 0.147993 22.5414 0.0534668C21.8262 0.343893 21.1356 0.691548 20.4763 1.09305C19.5542 0.798098 18.4544 0.649256 17.1969 0.649256C11.3569 0.649256 5.8321 4.0202 5.8321 8.18463C5.8321 10.0234 6.87168 10.6794 7.89989 10.6794C8.85947 10.6794 9.79883 10.1408 10.0967 9.48799C9.26031 9.3162 8.76494 8.59157 8.76494 7.6722C8.76494 4.42989 12.6946 1.59157 16.7273 1.59157C17.6294 1.59157 18.4113 1.76062 19.0529 2.06968C16.6041 3.95431 14.7251 6.52063 13.1729 9.26441C12.9568 9.23098 12.7386 9.21374 12.5199 9.21284C11.3599 9.21284 10.5237 9.71115 10.5237 10.6735C10.5237 11.3265 10.9504 11.888 11.6005 12.2945C10.6439 14.2909 9.80199 16.2901 8.99715 18.1088C8.71652 17.5562 8.08052 17.1952 7.34157 17.1952C5.56578 17.1952 4.23126 18.7589 4.23126 20.6922C4.23126 21.9554 4.74389 23.161 5.62599 24.1265C4.79252 25.057 3.88178 25.6101 2.81631 25.6356C2.47013 25.6461 2.12789 25.5597 1.8281 25.3863C2.66157 25.2949 3.34599 24.6762 3.32599 23.8716C3.30515 23.0665 2.63589 22.4966 1.71631 22.5166C0.590625 22.5425 -0.0194799 23.4846 0.000730639 24.3095C0.035257 25.8392 1.33252 26.6408 3.02536 26.601C4.48894 26.5665 5.7462 26.045 6.8662 25.1661C7.92873 25.8478 9.25778 26.2632 10.7443 26.2632C15.2353 26.2632 19.0473 22.4366 19.0473 17.3015C19.0473 15.2592 18.5203 13.6438 17.7355 12.4067C19.1934 11.8939 20.4736 11.0749 21.4702 10.0865C22.8679 8.70041 23.9077 8.82926 24.4976 9.20463C22.1805 11.6105 20.2988 15.4912 20.2988 18.1004C20.2988 19.716 20.9433 20.7669 22.1862 20.7669C25.9153 20.7669 30.3662 13.5779 30.3117 9.62842C31.5089 8.3021 33.11 7.51157 34.4102 7.51157C34.6565 7.51157 34.8799 7.54042 35.0833 7.59494C32.1704 9.6541 30.3546 13.177 30.3546 15.8865C30.3546 17.3244 31.0593 18.4124 32.434 18.4124C35.0001 18.4124 38.3426 14.4168 38.3426 10.4301C38.3426 9.20715 37.9961 8.28505 37.4435 7.63768C38.3399 7.10484 39.3251 6.78126 40.3818 6.78126C40.9948 6.78126 41.6363 6.92462 42.2119 7.17663L39.6428 12.2718C39.0443 13.5147 38.8123 14.437 38.8123 15.1044C38.8123 16.1356 39.4138 16.6627 40.3734 16.6627C41.7651 16.6627 43.4094 15.368 45.0475 13.5177C45.755 14.3943 46.8578 14.7865 47.7713 14.7865C48.0605 14.7865 48.3582 14.7577 48.6592 14.7034C47.9689 15.5739 46.8205 16.2297 45.1363 16.6507L22.8336 22.2272C19.4454 23.0722 17.3744 24.7448 18.374 27.9472C19.1473 27.3112 20.5393 26.6897 24.1367 25.5926L44.383 19.4204C47.3445 18.5154 49.2235 16.3933 50.0254 14.2505C51.4062 13.5834 52.6319 12.3032 52.6319 10.5244C52.6317 8.56252 50.9877 7.39094 50.3891 5.96757Z" fill="white"/>
</g>
<defs>
<clipPath id="clip0_285_259">
<rect width="52.6316" height="28" fill="white"/>
</clipPath>
</defs>
</svg>
