<svg width="100" height="28" viewBox="0 0 100 28" fill="none" xmlns="http://www.w3.org/2000/svg">
<g clip-path="url(#clip0_285_261)">
<path d="M0.415327 0.00415039V0.612751H99.7217V0.00415039H0.415327ZM0.415327 27.3884V27.997H99.7217V27.3884H0.415327ZM65.8729 21.9823C70.2469 20.1948 71.8062 17.8748 71.8062 13.3108C71.8062 7.71983 69.4861 4.98127 63.4767 4.98127C58.3802 4.98127 55.4136 7.87192 55.4136 13.0824C55.4136 17.7605 57.0869 20.7272 60.434 21.8684C61.651 22.2866 63.0584 21.8684 65.6067 23.3516C69.4861 25.5954 69.4861 25.6337 70.4749 25.6337C71.0453 25.6337 71.3496 25.4054 71.3496 25.1012C71.3496 24.5306 70.2468 25.1012 68.8774 23.4277C68.3829 22.8191 67.5462 22.3627 66.1009 22.0204L65.8729 21.9823ZM63.5957 6.15886C67.2467 6.15886 69.1865 8.82125 69.1865 13.5754C69.1865 18.4057 67.4751 21.1061 63.6335 21.1061C60.1726 21.1061 57.9666 18.5197 57.9666 13.6136C57.9666 8.85933 60.1345 6.15886 63.5957 6.15886ZM13.4325 5.32795C11.3786 5.06174 9.70514 4.83348 7.61327 4.83348C2.66898 4.83348 0.0065918 7.76222 0.0065918 13.315C0.0065918 19.2101 3.20126 22.2528 8.86842 22.2528C10.5419 22.2528 11.9872 22.0246 12.7098 21.6063C13.5465 21.1499 14.0029 19.5144 14.0029 19.3623C14.0029 19.0961 13.9649 19.0199 13.8889 19.0199C13.6606 19.0199 11.835 20.9977 8.98241 20.9977C5.21709 20.9977 2.97314 18.1834 2.97314 13.3531C2.97314 8.63689 5.10296 6.12659 9.05859 6.12659C12.4055 6.12659 13.1282 7.45778 13.5084 7.45778C13.6227 7.45778 13.6605 7.41969 13.6605 7.34365C13.6605 7.11553 13.4703 6.12659 13.4324 5.51799L13.4325 5.32795ZM33.205 5.32103C33.8515 8.17358 33.9276 8.7441 33.9276 14.0687C33.9276 17.3394 33.8515 20.1542 33.7755 22.2839V22.5121H36.2858C35.3349 21.2951 35.2968 21.1428 35.2968 19.8118L35.6011 8.97222L45.528 22.5121H47.0114L46.8212 5.32103H44.5771C45.4519 6.42396 45.49 6.50014 45.528 7.98341L45.0335 17.2635L36.2858 5.32103H33.205ZM73.753 5.3195C74.2095 10.9486 74.2095 10.9486 74.2095 12.7362C74.2095 14.2575 74.1333 15.3604 74.1333 16.4635C74.1333 21.0275 75.6929 22.8911 80.447 22.8911C85.8478 22.8911 86.8366 21.0275 86.8366 16.007V5.3195H84.4787C84.973 6.30845 85.2775 6.91691 85.2775 7.9438L85.1252 13.9531C85.1252 21.0656 83.9842 21.6361 80.8275 21.6361C76.796 21.6361 76.7577 19.2019 76.7577 13.877C76.7577 12.2798 76.91 7.9438 77.1762 5.47159V5.3195H73.753ZM89.0807 5.32338C89.5371 9.39314 89.6131 10.4578 89.6131 14.1473C89.6131 16.201 89.6131 16.201 89.1189 22.2105V22.3625C91.2488 22.1724 92.542 22.0963 93.6067 22.0963C95.5084 22.0963 96.6494 22.3625 97.6763 22.3625C99.0837 22.3625 99.6542 21.9823 99.6542 19.9664V19.8143C98.9697 20.6129 98.2469 21.1074 97.0679 21.1074C95.6985 21.1074 93.8731 20.8412 92.2376 20.4989L92.0474 20.4608L92.2754 14.1093H99.0074C98.9314 13.729 98.9314 13.6529 98.9314 13.4247C98.9314 13.2345 98.9314 13.1205 98.9694 12.8542L99.0073 12.7021H92.2752V7.03506C94.5954 6.88297 97.3338 6.61676 98.0946 6.61676C98.551 6.61676 98.589 6.65471 99.5017 7.4154L99.5778 7.49157L99.3117 5.32352L89.0807 5.32338ZM15.6334 5.32103C15.9756 8.24963 16.1658 10.4555 16.1658 15.8182C16.1658 17.8341 16.0898 19.5076 15.9377 22.3601V22.5121C17.6872 22.3981 18.638 22.322 19.8171 22.322C21.6809 22.322 21.7949 22.4742 23.2402 22.4742C24.3812 22.4742 24.9517 22.1699 25.0659 22.0557C25.1419 22.0178 25.7885 20.9149 25.7885 20.1542C25.7885 19.888 25.6743 19.8499 25.5983 19.8499C25.3321 19.8499 24.8757 21.1811 23.2783 21.1811C21.9471 21.1811 21.1483 20.8007 19.1325 20.8007H18.9045C18.9045 13.2701 18.9045 9.39065 19.0947 5.47311V5.32103H15.6334ZM27.1616 5.32103C27.5039 9.80894 27.5801 11.3304 27.5801 14.8674C27.5801 17.8721 27.542 18.7087 27.3518 22.3602V22.5123H30.3185C30.1663 19.2413 30.1283 17.1116 30.1283 13.4223C30.1283 12.3192 30.1283 12.3192 30.3564 5.47325V5.32117L27.1616 5.32103ZM50.3175 5.32103C50.6599 9.50478 50.736 11.4065 50.736 14.7534C50.736 17.7579 50.6598 20.4964 50.5077 22.3602V22.5123H53.4744C53.3604 19.1654 53.2842 16.8454 53.2842 13.4984C53.2842 12.4713 53.2842 12.4334 53.5123 5.47325V5.32117L50.3175 5.32103Z" fill="white"/>
</g>
<defs>
<clipPath id="clip0_285_261">
<rect width="99.7151" height="28" fill="white" transform="translate(0.0065918)"/>
</clipPath>
</defs>
</svg>
