<svg width="52" height="28" viewBox="0 0 52 28" fill="none" xmlns="http://www.w3.org/2000/svg">
<g clip-path="url(#clip0_285_262)">
<path fill-rule="evenodd" clip-rule="evenodd" d="M50.6788 26.3045C50.3294 26.3045 50.0421 26.6121 50.0421 26.988C50.0421 27.364 50.3302 27.6701 50.6788 27.6701C51.0274 27.6701 51.3104 27.3662 51.3104 26.988C51.3104 26.6099 51.0281 26.3045 50.6788 26.3045ZM51.4898 26.988C51.4865 27.1477 51.4362 27.3028 51.3451 27.434C51.254 27.5652 51.1263 27.6665 50.9778 27.7254C50.8294 27.7842 50.6668 27.798 50.5106 27.7648C50.3544 27.7317 50.2115 27.6532 50.0997 27.5391C49.9879 27.4251 49.9123 27.2805 49.8823 27.1237C49.8524 26.9668 49.8694 26.8046 49.9312 26.6574C49.993 26.5102 50.097 26.3845 50.23 26.2961C50.3629 26.2077 50.5191 26.1605 50.6788 26.1605C50.7864 26.1614 50.8928 26.1836 50.9918 26.2257C51.0909 26.2678 51.1807 26.3291 51.256 26.406C51.3313 26.4828 51.3908 26.5738 51.4309 26.6737C51.471 26.7736 51.491 26.8804 51.4898 26.988Z" fill="white"/>
<path fill-rule="evenodd" clip-rule="evenodd" d="M50.7579 26.9506L50.5116 26.9556V26.6862H50.6917L50.7637 26.6898L50.8285 26.7057L50.8537 26.7222L50.8753 26.7417L50.8883 26.7741L50.8933 26.8353L50.8825 26.8735L50.8681 26.9016L50.8307 26.9311L50.8163 26.9383L50.7997 26.9434L50.7579 26.9506ZM50.8011 27.0694L50.8516 27.0622C51.1339 27.0096 51.1137 26.517 50.7075 26.558H50.3604V27.4735H50.5094V27.0817H50.6535L50.8912 27.4742H51.0619L50.8011 27.0694Z" fill="white"/>
<path fill-rule="evenodd" clip-rule="evenodd" d="M11.0618 16.0437L15.6649 27.6903H17.261L21.8858 16.0437H19.8597L16.5696 24.5715L13.4919 16.0437H11.0618Z" fill="white"/>
<path fill-rule="evenodd" clip-rule="evenodd" d="M8.75184 20.6916H3.04596C3.27644 18.8232 4.33378 17.7558 6.02494 17.7558C7.58646 17.7544 8.63299 18.9356 8.75184 20.6916ZM2.97177 22.3482L11.0509 22.341L11.0545 22.3172C11.0545 18.1894 8.84403 16.0294 6.02998 16.0294C2.88966 16.0322 0.716647 18.4977 0.721688 21.8814C0.721688 25.3293 2.39124 28 6.187 28C8.11513 28 9.41735 27.408 10.7866 26.5134V24.3699C9.52755 25.3531 7.93723 26.2541 6.57018 26.2541C4.395 26.2541 2.97177 24.8417 2.97177 22.3511V22.3482Z" fill="white"/>
<path fill-rule="evenodd" clip-rule="evenodd" d="M25.1902 27.7025L25.1923 16.0524H23.1612L23.1519 27.7025H25.1902Z" fill="white"/>
<path fill-rule="evenodd" clip-rule="evenodd" d="M25.1902 14.9418L25.1923 12.9171H23.1612L23.1519 14.9418H25.1902Z" fill="white"/>
<path fill-rule="evenodd" clip-rule="evenodd" d="M48.6641 27.7025V20.7096C48.6641 19.269 48.2752 18.0266 47.5326 17.1443C46.79 16.262 45.6901 15.7448 44.3195 15.7448C43.7519 15.7377 43.1888 15.8478 42.6657 16.0683C42.1426 16.2888 41.6706 16.6149 41.2793 17.0262V16.0322H39.2554V27.7061H41.3441V20.5994C41.3492 18.9701 42.4879 17.7644 44.0653 17.7594C45.7218 17.7702 46.5861 18.9435 46.5962 20.6404V27.6989H46.5926L48.6641 27.7025Z" fill="white"/>
<path fill-rule="evenodd" clip-rule="evenodd" d="M29.1913 24.9065C29.1156 24.7591 29.0668 24.5993 29.0473 24.4347V24.4225L29.0422 24.4009L29.0314 24.2208C29.0473 23.337 29.4686 22.5505 31.8303 22.3798C32.9475 22.2984 34.079 22.1803 34.8648 21.6999L34.9728 21.6279L35.006 21.6077V23.0958C35.0009 23.3264 34.9712 23.5557 34.9174 23.78C34.8921 23.8736 34.8597 23.9651 34.8273 24.053L34.8187 24.084C34.6815 24.4263 34.4679 24.7328 34.1942 24.98L34.1402 25.034L34.0883 25.0736C33.4207 25.6174 32.462 25.8659 31.4544 25.8659C30.3963 25.8651 29.5277 25.5598 29.1913 24.9065ZM37.3201 27.4274C37.1689 27.0276 37.0234 26.2361 37.0126 25.6836V19.3367C37.0126 18.2455 36.6258 17.32 35.8602 16.6826C35.0945 16.0452 33.9609 15.6836 32.4786 15.6836H32.4678L32.4627 15.68C30.0916 15.6836 28.3918 16.7503 27.825 18.4832L27.8048 18.5553L27.7724 18.6453H30.0506L30.0888 18.5949C30.6066 17.8645 31.6121 17.6506 32.4469 17.6506H32.4541C34.2835 17.6629 35.0067 18.3104 35.0088 19.1243V19.1293C35.0031 19.5276 34.823 19.828 34.3001 20.0728C33.7772 20.3177 32.9057 20.4791 31.5797 20.5424C28.7448 20.6865 27.0032 21.7964 27.0032 24.2042V24.2186V24.2294C27.0104 26.7669 29.1171 27.861 31.3931 27.861H31.4047C32.9734 27.861 34.2 27.3719 35.0204 26.5098L35.0549 26.4738L35.06 26.5206C35.0943 26.8659 35.181 27.204 35.3171 27.5232L35.3315 27.552L35.3495 27.593H37.3914L37.3201 27.4274Z" fill="white"/>
<path fill-rule="evenodd" clip-rule="evenodd" d="M29.7451 9.10765L28.6279 7.80687L28.5739 6.45279L26.6588 3.6409L26.2324 2.28682L24.6348 0.724579V0L22.9941 0.926971L21.9209 2.70385L20.8549 2.65055L19.7385 4.05793L18.0906 5.84777L17.469 6.72072L20.3219 6.39949L23.4947 7.46907L24.583 9.52324L27.0491 11.1316L30.3069 11.1078L32.567 11.7143L29.7969 9.94243L29.7451 9.10765Z" fill="white"/>
<path fill-rule="evenodd" clip-rule="evenodd" d="M17.6303 9.92806L16.3144 7.40284L16.6832 6.62352L16.2907 5.47471L16.6033 4.46779L16.5154 2.36896L13.8879 4.25603L12.7621 6.07396L11.4995 6.41176L9.61677 7.91926L7.51001 10.5986L5.80444 11.9052L8.40241 12.0211L11.3115 10.6771L13.1403 11.7582L16.3901 11.6956L17.4474 12.2228L18.3492 11.8058L17.7874 11.5263L17.6303 9.92806Z" fill="white"/>
<path fill-rule="evenodd" clip-rule="evenodd" d="M39.7005 10.4862L39.0522 7.37182L37.4835 5.04179L36.8353 3.34918L35.2702 4.25311L33.9334 5.60935L31.6653 5.93419L29.9741 6.78913L30.6389 7.72042L33.3802 9.27186L35.2176 11.012L36.8367 11.1733L39.4297 12.5994H42.9928C42.9928 12.5994 41.2037 11.133 41.1028 11.0653C41.002 10.9976 39.7005 10.4862 39.7005 10.4862Z" fill="white"/>
</g>
<defs>
<clipPath id="clip0_285_262">
<rect width="50.7681" height="28" fill="white" transform="translate(0.72168)"/>
</clipPath>
</defs>
</svg>
