<svg width="69" height="29" viewBox="0 0 69 29" fill="none" xmlns="http://www.w3.org/2000/svg">
<path d="M54.3593 18.2629C50.2538 18.2629 49.5057 15.8592 49.5057 15.2634H52.4789C52.4789 15.6134 52.9471 16.0325 53.3417 16.2031C53.6695 16.3303 54.0203 16.3875 54.3716 16.3711H54.3663C55.2037 16.3711 55.8906 16.1655 55.8906 15.6729C55.8906 15.0726 55.1871 14.9396 54.4118 14.8276C52.3004 14.5187 49.3421 14.16 49.3421 11.7669C49.3421 9.53473 51.7474 8.39898 54.3007 8.39898C58.3887 8.39898 59.4719 10.6941 59.4719 11.3582H56.4506C56.4327 11.1897 56.3724 11.0285 56.2754 10.8896C56.1784 10.7507 56.0478 10.6386 55.8958 10.5637L55.8897 10.5611C55.5222 10.372 55.1156 10.2716 54.7023 10.268H54.7006C53.5718 10.268 52.9366 10.506 52.9366 11.0301C52.9366 11.458 53.5088 11.6706 54.3313 11.8132C56.4777 12.1869 59.7729 12.3164 59.7729 14.9624C59.7729 16.3064 58.6241 18.2611 54.3602 18.2611L54.3593 18.2629ZM49.3158 9.79723L48.1582 11.073H47.6769L48.2072 9.68173H47.1467V7.82673H49.3158V9.79723ZM42.5871 8.62211H46.4292V17.996H42.5871V8.62211ZM37.5768 18.0144H34.2194L29.2066 8.63961H33.7303L36.6073 14.3376L36.6861 14.5091L36.7578 14.3376L39.4476 8.63961H42.1636L37.5768 18.0144ZM30.3642 14.1197H22.5889C22.5986 14.4183 22.6686 14.7117 22.7947 14.9825C22.9208 15.2532 23.1004 15.4957 23.3227 15.6952C23.545 15.8946 23.8054 16.0471 24.0882 16.1432C24.3709 16.2394 24.6702 16.2773 24.9681 16.2547L24.9602 16.2556C25.3584 16.2757 25.7553 16.1951 26.1142 16.0214C26.4731 15.8477 26.7825 15.5864 27.0138 15.2616L27.0191 15.2546H30.1192C29.1059 17.6145 27.1398 18.2847 24.4606 18.2847C20.9754 18.2847 18.5114 16.3729 18.5114 13.3436C18.5114 10.1087 20.9387 8.40161 24.4606 8.40161C28.4007 8.40161 30.3764 10.989 30.3764 13.4792C30.3866 13.6989 30.3816 13.9191 30.3616 14.1381L30.3642 14.1197ZM18.4458 17.9995H9.58469V8.64748H13.5686V15.455H18.4458V17.9995ZM63.8382 0.999983C63.8662 1.05861 63.8977 1.11548 63.9239 1.17586C64.1584 1.70698 64.2949 2.32736 64.2949 2.97923V3.01861V3.01686V3.06411C64.2949 3.72386 64.1584 4.35123 63.9126 4.91998L63.9239 4.88936C63.687 5.4441 63.3474 5.94908 62.9229 6.37773C62.5106 6.79209 62.0214 7.122 61.4827 7.34898L61.4529 7.36036C60.8945 7.59368 60.295 7.71298 59.6898 7.71123H59.6592H59.6609H59.6356C58.9968 7.71123 58.3878 7.58261 57.8339 7.34898L57.8646 7.36036C57.3108 7.13273 56.807 6.79892 56.3814 6.37773C55.9616 5.9585 55.6244 5.46397 55.3874 4.91998L55.3761 4.88936C55.1288 4.3127 55.0023 3.69153 55.0042 3.06411V3.01423V3.01686V2.97923C55.0042 2.32736 55.1407 1.70786 55.3874 1.14698L55.3761 1.17586C55.4023 1.11548 55.4338 1.05861 55.4627 0.999983H0.632568L7.11544 29C20.7261 20.131 33.8064 28.6544 34.3332 28.979H34.3349L34.3384 28.9764H34.3454L34.3489 28.9781L34.3516 28.979C34.8766 28.6535 47.9587 20.131 61.5684 29L68.0504 0.999983H63.8382ZM24.3862 10.3616H24.3713C23.896 10.3616 23.4402 10.5504 23.1042 10.8865C22.7681 11.2225 22.5793 11.6783 22.5793 12.1536L22.5811 12.2411V12.2367H26.3444C26.3609 11.9782 26.3205 11.7191 26.2261 11.4778C26.1316 11.2365 25.9855 11.0189 25.7979 10.8401C25.6103 10.6614 25.3859 10.5259 25.1403 10.4432C24.8947 10.3606 24.6341 10.3327 24.3766 10.3616L24.3844 10.3607L24.3862 10.3616ZM56.9379 5.88336C57.2845 6.24751 57.7015 6.53737 58.1636 6.73533C58.6257 6.93328 59.1232 7.03519 59.6259 7.03486H59.6627H59.6609H59.6933C60.2227 7.03486 60.7258 6.92198 61.1799 6.71898L61.1572 6.72861C61.61 6.52922 62.0191 6.2426 62.3612 5.88511L62.3629 5.88336C62.6998 5.52723 62.9711 5.10548 63.1566 4.63998L63.1662 4.61373C63.3499 4.15261 63.4567 3.61711 63.4567 3.05798V3.01511V3.01686V2.98536C63.4573 2.45055 63.3551 1.9206 63.1557 1.42436L63.1653 1.45236C63.0996 1.29018 63.0236 1.13236 62.9378 0.979858L62.9483 0.999983H61.6341C61.7627 1.23273 61.8379 1.51098 61.8379 1.80673L61.8371 1.86798V1.86536C61.8547 2.06468 61.8272 2.26541 61.7566 2.45265C61.686 2.63988 61.5742 2.8088 61.4293 2.94686L61.4284 2.94773C61.1528 3.17523 60.8037 3.32398 60.4222 3.35461H60.4161L61.9604 5.77048H61.0583L59.5892 3.41761H58.6993V5.77048H57.8602V0.999983H56.3526C56.2826 1.12248 56.2099 1.27123 56.1461 1.42436L56.1356 1.45148C55.9419 1.9387 55.8433 2.45846 55.8451 2.98273V3.01686V3.01511V3.05711C55.8451 3.61623 55.9518 4.15086 56.1461 4.64086L56.1356 4.61198C56.3298 5.10461 56.6011 5.52636 56.9397 5.88423L56.9379 5.88336ZM60.1133 2.70973C60.2787 2.70011 60.4318 2.66248 60.5727 2.60036L60.5639 2.60386C60.6922 2.54794 60.8012 2.45541 60.8772 2.33786L60.8789 2.33523C60.9542 2.20398 60.9979 2.04736 60.9979 1.88023L60.9962 1.82598V1.82861L60.9971 1.79098C60.9971 1.64888 60.96 1.50923 60.8894 1.38586L60.8912 1.39023C60.8244 1.28578 60.7319 1.20022 60.6226 1.14173L60.6191 1.13998C60.5011 1.07924 60.3735 1.03956 60.2419 1.02273L60.2358 1.02186C60.1745 1.01275 60.1129 1.00575 60.0512 1.00086H58.6984V2.72898H59.5752C59.7648 2.72898 59.9439 2.72286 60.1124 2.71061L60.1133 2.70973Z" fill="white"/>
</svg>
